<?xml version="1.0" encoding="utf-8"?>
<!-- Generator: Adobe Illustrator 26.2.1, SVG Export Plug-In . SVG Version: 6.00 Build 0)  -->
<svg version="1.1" id="Camada_1" xmlns="http://www.w3.org/2000/svg" xmlns:xlink="http://www.w3.org/1999/xlink" x="0px" y="0px"
	 viewBox="0 0 107.7165375 107.7165375" style="enable-background:new 0 0 107.7165375 107.7165375;" xml:space="preserve">
<style type="text/css">
	.st0{fill:#990000;}
	.st1{display:none;}
	.st2{display:inline;}
	.st3{fill:none;stroke:#9D9D9C;stroke-width:0.5;stroke-miterlimit:10;}
</style>
<g id="wiki">
	<path id="wiki_W" class="st0" d="M11.4972153,11.7222834c0.4482813,0.0465727,0.7971087,0.1693115,1.047226,0.3680315
		c0.2508583,0.198164,0.4898434,0.5475483,0.7162104,1.0471334l3.6189032,8.0108862
		c0.0333977,0.0744038,0.1024208,0.1116066,0.2085533,0.1116066c0.0868359,0,0.1543751-0.0372028,0.2026176-0.1116066
		l2.3749981-4.1615353l2.0677319,4.1615353c0.0474987,0.0744038,0.1157799,0.1116066,0.2026157,0.1116066
		c0.1098442,0,0.1773834-0.0372028,0.2011337-0.1116066l3.6842155-8.0108862
		c0.2412109-0.5324268,0.4749985-0.8930368,0.7013664-1.082387c0.226366-0.1893501,0.5173035-0.3003998,0.8735542-0.332778
		c0.0437889,0,0.0831242-0.0229149,0.1194916-0.0684662c0.0356255-0.0454597,0.0541801-0.0959282,0.0541801-0.1506643
		c0-0.1096582-0.0333996-0.1644869-0.1009388-0.1644869c-0.2315617,0-0.4913273,0.0141945-0.779295,0.0416546
		c-0.2798042,0.027832-0.5254688,0.0420265-0.7369919,0.0420265c-0.2026176,0-0.452734-0.0141945-0.7510929-0.0420265
		c-0.3228512-0.0274601-0.6019135-0.0416546-0.8379288-0.0416546c-0.0868359,0-0.1306248,0.064106-0.1306248,0.1918554
		c0,0.1277485,0.028944,0.191762,0.0868359,0.191762c0.6457024,0.0279245,0.9685535,0.2710838,0.9685535,0.7291059
		c0,0.1912985-0.0482426,0.4017086-0.1447277,0.6307659l-2.7765198,6.2263908l-1.8762474-3.6927509l1.387146-2.4783468
		c0.3414059-0.5789061,0.6271477-0.9502773,0.8557415-1.1142082c0.2285938-0.1629095,0.5306644-0.2637548,0.9062099-0.3009567
		c0.1061325,0,0.1588287-0.0728273,0.1588287-0.2191305c0-0.1096582-0.0289459-0.1644869-0.0868359-0.1644869
		c-0.2456646,0-0.550703,0.0162354-0.9166012,0.0489836c-0.2894535,0.0230083-0.5083981,0.0346975-0.6583195,0.0346975
		c-0.2070694,0-0.4720306-0.0141945-0.7933979-0.0420265c-0.3369522-0.0274601-0.6212101-0.0416546-0.8527718-0.0416546
		c-0.0289459,0-0.0578918,0.0205956-0.0860939,0.0616941c-0.0289459,0.0410986-0.0437889,0.084609-0.0437889,0.1301613
		c0,0.1277485,0.028944,0.191762,0.0868359,0.191762c0.6457024,0.0279245,0.9678116,0.2568893,0.9678116,0.6865225
		c0,0.1825781-0.0719929,0.4066257-0.2167187,0.6727924l-1.0412884,1.8760633l-1.047226-2.0501986
		c-0.1491795-0.2945557-0.2241402-0.5118303-0.2241402-0.6522894c0-0.3131104,0.3228512-0.4907713,0.9678116-0.5328903
		c0.0482426,0,0.0727348-0.0640135,0.0727348-0.191762c0-0.1277494-0.0385952-0.1918554-0.1157818-0.1918554
		c-0.3228512,0-0.650156,0.0141945-0.9826546,0.0416546c-0.3213673,0.027832-0.6278915,0.0420265-0.9166012,0.0420265
		c-0.2939053,0-0.5707417-0.0141945-0.8305073-0.0420265c-0.269413-0.0274601-0.566288-0.0416546-0.8883972-0.0416546
		c-0.0682812,0-0.1009369,0.064106-0.1009369,0.1918554c0,0.0499115,0.0155849,0.0949068,0.0467567,0.1335936
		c0.0311718,0.0386858,0.0638275,0.0581684,0.0979691,0.0581684c0.3696079,0.0372019,0.6471863,0.1389742,0.8297653,0.3048534
		c0.1833191,0.1654148,0.4163666,0.5358591,0.7006245,1.1103115l1.584568,3.1991034l-1.7359753,3.1119881l-2.9524183-6.5352316
		c-0.0764456-0.1682911-0.1150389-0.3082867-0.1150389-0.4203568c0-0.2196875,0.0920305-0.3967915,0.2783194-0.5323334
		c0.1855469-0.1355419,0.4393749-0.2147703,0.7614841-0.2383347c0.0482416,0,0.0727339-0.0640135,0.0727339-0.191762
		c0-0.1277494-0.0385933-0.1918554-0.1157808-0.1918554c-0.3228512,0-0.693203,0.0141945-1.1125383,0.0416546
		c-0.4000387,0.027832-0.7466393,0.0420265-1.0412874,0.0420265c-0.2887106,0-0.5974607-0.0141945-0.9247646-0.0420265
		c-0.3525391-0.0274601-0.6894922-0.0416546-1.0123434-0.0416546c-0.0771875,0-0.1157808,0.064106-0.1157808,0.1918554
		c0,0.0499115,0.0163279,0.0949068,0.0504684,0.1335936C11.4222546,11.7028008,11.4593639,11.7222834,11.4972153,11.7222834z"/>
	<path id="wiki_I_1" class="st0" d="M29.7631741,20.3395367c-0.2100391,0.1438904-0.6056252,0.248539-1.188242,0.3136654
		c-0.0771866,0.0092773-0.1157799,0.0723629-0.1157799,0.1883297c0,0.1301613,0.0385933,0.1952877,0.1157799,0.1952877
		c0.3273048,0,0.7147274-0.0141926,1.1622658-0.0421181c0.4237881-0.027832,0.7830067-0.041563,1.0769119-0.041563
		c0.2939072,0,0.6523838,0.013731,1.0761719,0.041563c0.4430847,0.0279255,0.8253098,0.0421181,1.1481628,0.0421181
		c0.0771866,0,0.1157799-0.0651264,0.1157799-0.1952877c0-0.1159668-0.0408211-0.1790524-0.1224594-0.1883297
		c-0.4044914-0.0464783-0.7117577-0.1081734-0.9210548-0.1849899c-0.2100372-0.0763531-0.3555069-0.1809998-0.4371471-0.3136673
		c-0.0823822-0.1325722-0.1224613-0.3595886-0.1224613-0.680584V12.908391c0-0.3302736,0.0400791-0.5602589,0.1224613-0.6908836
		c0.0816402-0.1301603,0.2293358-0.233881,0.4408588-0.3106976c0.212265-0.0763531,0.5202713-0.1379538,0.9240227-0.1845264
		c0.0771866,0,0.1157799-0.0640135,0.1157799-0.191762c0-0.1277494-0.0385933-0.1918554-0.1157799-0.1918554
		c-0.3228531,0-0.7050781,0.0141945-1.1481628,0.0416546c-0.4237881,0.027832-0.7822647,0.0420265-1.0761719,0.0420265
		c-0.2939053,0-0.6531239-0.0141945-1.0769119-0.0420265c-0.4475384-0.0274601-0.8349609-0.0416546-1.1622658-0.0416546
		c-0.0771866,0-0.1157799,0.064106-0.1157799,0.1918554c0,0.1277485,0.0385933,0.191762,0.1157799,0.191762
		c0.4089451,0.0465727,0.7191792,0.1081734,0.9314461,0.1845264c0.2115231,0.0768166,0.3599606,0.1815577,0.4445686,0.3141308
		c0.083868,0.1325731,0.126173,0.3620939,0.126173,0.6874504v6.5655699
		C30.0771198,19.9070263,29.9724712,20.1951809,29.7631741,20.3395367z"/>
	<path id="wiki_K" class="st0" d="M35.7585602,20.3395367c-0.210041,0.1438904-0.606369,0.248539-1.1889839,0.3136654
		c-0.0771866,0.0092773-0.1150398,0.0723629-0.1150398,0.1883297c0,0.1301613,0.0378532,0.1952877,0.1150398,0.1952877
		c0.3228493,0,0.708046-0.0141926,1.1563263-0.0421181c0.42453-0.027832,0.7815208-0.041563,1.0717163-0.041563
		c0.2961349,0,0.6583214,0.013731,1.087307,0.041563c0.4482803,0.0279255,0.8334732,0.0421181,1.1563263,0.0421181
		c0.0771866,0,0.1157799-0.0651264,0.1157799-0.1952877c0-0.1159668-0.0415611-0.1790524-0.1224594-0.1883297
		c-0.4007835-0.0464783-0.7073059-0.1081734-0.9217987-0.184433c-0.214489-0.07691-0.3636703-0.1815567-0.4482803-0.3136673
		c-0.0838661-0.1326656-0.1261711-0.3592186-0.1261711-0.6801205v-2.9559441c0.197422,0,0.3525391,0.0230064,0.466095,0.0694866
		c0.112812,0.0464802,0.2471466,0.1443558,0.4007797,0.2930717l2.8678093,2.8165054
		c0.211525,0.2044716,0.3176575,0.3718357,0.3176575,0.501997c0,0.2280369-0.324337,0.3787003-0.9744911,0.453104
		c-0.0675392,0.0092773-0.1016808,0.0723629-0.1016808,0.1883297c0,0.1301613,0.0385933,0.1952877,0.1157799,0.1952877
		c0.3228531,0,0.7466393-0.0141926,1.2713661-0.0421181c0.5009766-0.027832,0.8928528-0.041563,1.1771088-0.041563
		c0.2939072,0,0.6553497,0.013731,1.0835915,0.041563c0.4482803,0.0279255,0.833477,0.0421181,1.1563301,0.0421181
		c0.0771866,0,0.115036-0.0651264,0.115036-0.1952877c0-0.1159668-0.043045-0.1790524-0.1306229-0.1883297
		c-0.5499611-0.064106-0.9640999-0.1600342-1.2424202-0.2872257c-0.2775803-0.1267281-0.5588684-0.3332424-0.8438683-0.6194477
		l-4.0953865-4.0221882l3.3012466-3.0258026c0.3710938-0.3420553,0.6880074-0.5759373,0.9529686-0.7026653
		c0.2649612-0.1262646,0.6278915-0.2172756,1.090271-0.2735891c0.0771904,0,0.1157837-0.0640135,0.1157837-0.191762
		c0-0.1277494-0.0341415-0.1918554-0.1016808-0.1918554c-0.1870308,0-0.4141388,0.0117817-0.67836,0.03479
		c-0.3183975,0.0327482-0.6071091,0.0488911-0.8668747,0.0488911c-0.2605057,0-0.5878105-0.0141945-0.9826546-0.0420265
		c-0.3710938-0.0274601-0.6694527-0.0416546-0.8958168-0.0416546c-0.0868378,0-0.1298828,0.064106-0.1298828,0.1918554
		c0,0.1277485,0.0385933,0.191762,0.115036,0.191762c0.3710938,0.0465727,0.6182442,0.1018648,0.7407036,0.1649513
		c0.1239471,0.0630856,0.184063,0.1579924,0.184063,0.2842569c0,0.1077099-0.1298828,0.2809181-0.3896484,0.5196238
		l-3.1713638,3.0191231c-0.1588287,0.148716-0.2953911,0.2465916-0.411171,0.2926073
		c-0.1157837,0.0464802-0.2679291,0.0699501-0.4557037,0.0699501v-3.1633844c0-0.3259134,0.042305-0.5553417,0.1261711-0.6880074
		c0.08461-0.1325731,0.2330475-0.2373142,0.4453125-0.3141308c0.211525-0.0768166,0.521759-0.1384172,0.9314461-0.1849899
		c0.0771866,0,0.1157799-0.0640135,0.1157799-0.191762c0-0.1277494-0.0385933-0.1918554-0.1157799-0.1918554
		c-0.3228531,0-0.708046,0.0141945-1.1563263,0.0416546c-0.4289856,0.027832-0.791172,0.0420265-1.087307,0.0420265
		c-0.2901955,0-0.6471863-0.0141945-1.0717163-0.0420265c-0.4482803-0.0274601-0.833477-0.0416546-1.1563263-0.0416546
		c-0.0771866,0-0.1150398,0.064106-0.1150398,0.1918554c0,0.1277485,0.0378532,0.191762,0.1150398,0.191762
		c0.409687,0.0465727,0.7199211,0.1081734,0.9314423,0.1845264c0.212265,0.0768166,0.3607025,0.1815577,0.4453125,0.3141308
		c0.0838699,0.1325731,0.1261711,0.3620939,0.1261711,0.6874504v6.5655699
		C36.0725021,19.9070263,35.9671135,20.1951809,35.7585602,20.3395367z"/>
	<path id="wiki_I_2" class="st0" d="M47.6328049,20.3395367c-0.2100372,0.1438904-0.6056252,0.248539-1.1882401,0.3136654
		c-0.0771866,0.0092773-0.1157837,0.0723629-0.1157837,0.1883297c0,0.1301613,0.0385971,0.1952877,0.1157837,0.1952877
		c0.3273048,0,0.7147255-0.0141926,1.162262-0.0421181c0.42379-0.027832,0.7830086-0.041563,1.0769157-0.041563
		c0.2939034,0,0.6523819,0.013731,1.0761681,0.041563c0.4430885,0.0279255,0.8253136,0.0421181,1.1481628,0.0421181
		c0.0771904,0,0.1157837-0.0651264,0.1157837-0.1952877c0-0.1159668-0.0408211-0.1790524-0.1224632-0.1883297
		c-0.4044914-0.0464783-0.7117538-0.1081734-0.921051-0.1849899c-0.210041-0.0763531-0.3555069-0.1809998-0.437149-0.3136673
		c-0.0816422-0.1325722-0.1224594-0.3595886-0.1224594-0.680584V12.908391c0-0.3302736,0.0408173-0.5602589,0.1224594-0.6908836
		c0.0816422-0.1301603,0.2293358-0.233881,0.4408607-0.3106976c0.212265-0.0763531,0.5202713-0.1379538,0.9240189-0.1845264
		c0.0771904,0,0.1157837-0.0640135,0.1157837-0.191762c0-0.1277494-0.0385933-0.1918554-0.1157837-0.1918554
		c-0.3228493,0-0.7050743,0.0141945-1.1481628,0.0416546c-0.4237862,0.027832-0.7822647,0.0420265-1.0761681,0.0420265
		c-0.2939072,0-0.6531258-0.0141945-1.0769157-0.0420265c-0.4475365-0.0274601-0.8349571-0.0416546-1.162262-0.0416546
		c-0.0771866,0-0.1157837,0.064106-0.1157837,0.1918554c0,0.1277485,0.0385971,0.191762,0.1157837,0.191762
		c0.4089432,0.0465727,0.7191772,0.1081734,0.9314423,0.1845264c0.211525,0.0768166,0.3599625,0.1815577,0.4445724,0.3141308
		c0.0838661,0.1325731,0.1261711,0.3620939,0.1261711,0.6874504v6.5655699
		C47.9467506,19.9070263,47.8421021,20.1951809,47.6328049,20.3395367z"/>
</g>
<g id="loves">
	<polygon id="loves_L" class="st0" points="61.3254089,20.0995312 57.6634598,20.0995312 57.6634598,11.5616932 
		56.6926804,11.5616932 56.6926804,20.8966389 61.3254089,20.8966389 	"/>
	<path id="loves_O" class="st0" d="M63.516346,19.7106247c0.5447655,0.4677639,1.1615181,0.8237343,1.8502693,1.0680065
		s1.4175797,0.366642,2.1864853,0.366642s1.4992142-0.1223698,2.1909332-0.366642
		c0.6902313-0.2442722,1.3106995-0.6002426,1.8606644-1.0680065c0.5410538-0.4634018,0.9544525-0.9915619,1.2416763-1.584568
		c0.2864838-0.593008,0.4312134-1.2189484,0.4312134-1.8777332c0-0.6675034-0.1425018-1.2978058-0.4275055-1.8908129
		c-0.284996-0.5930071-0.6991348-1.1250629-1.2453842-1.5971861c-0.5351181-0.4590425-1.1466827-0.8087978-1.836174-1.0487099
		c-0.6880035-0.2403755-1.4264832-0.3603315-2.2154236-0.3603315c-0.7830124,0-1.5185165,0.1190281-2.20504,0.3569918
		s-1.2966003,0.5886469-1.8317146,1.0520496c-0.5462494,0.4721231-0.960392,1.004179-1.2453918,1.5971861
		s-0.4267578,1.2233095-0.4267578,1.8908129c0,0.6587849,0.141758,1.2827778,0.4267578,1.8714237
		C62.555954,18.708395,62.9700966,19.2390575,63.516346,19.7106247z M63.2231789,14.6573534
		c0.2345314-0.495224,0.5751953-0.9446182,1.0219917-1.3485527c0.4527359-0.3913183,0.9596481-0.6887493,1.5185165-0.8928509
		c0.5603485-0.2036371,1.1570663-0.3056879,1.7894135-0.3056879c0.6375351,0,1.2401886,0.1020508,1.8072205,0.3056879
		c0.5670319,0.2041016,1.0717163,0.5015326,1.5155487,0.8928509c0.4482803,0.3995743,0.7889404,0.8489685,1.0219879,1.3485527
		c0.2337875,0.4996777,0.3503113,1.0298777,0.3503113,1.59097c0,0.5567341-0.1180038,1.0873051-0.3547592,1.5908775
		c-0.2360153,0.5034809-0.5744553,0.9533386-1.01754,1.3485546c-0.4527359,0.3913174-0.9618759,0.6887493-1.52668,0.8929424
		c-0.5648041,0.2036381-1.1637497,0.3056889-1.7960892,0.3056889c-0.6471863,0-1.2483597-0.1006603-1.8035126-0.3028126
		c-0.5544205-0.2016888-1.055397-0.5006046-1.5044174-0.8958187c-0.4467964-0.3995762-0.7874603-0.848877-1.0219917-1.3485546
		c-0.2337875-0.4996777-0.3503113-1.0297832-0.3503113-1.5908775
		C62.8728676,15.6828709,62.9893913,15.1526709,63.2231789,14.6573534z"/>
	<polygon id="loves_V" class="st0" points="82.2149963,11.5616932 81.1499634,11.5616932 77.9103165,19.1621494 
		74.8317261,11.5616932 73.7147293,11.5616932 77.8962097,21.2599411 	"/>
	<polygon id="loves_E" class="st0" points="88.7083893,20.0995312 84.3896027,20.0995312 84.3896027,16.0761375 
		88.7083893,16.0761375 88.7083893,15.2789354 84.3896027,15.2789354 84.3896027,12.3588018 88.7083893,12.3588018 
		88.7083893,11.5616932 83.4195633,11.5616932 83.4195633,20.8966389 88.7083893,20.8966389 	"/>
	<path id="loves_S" class="st0" d="M93.2980728,20.3863869c-0.5343781,0-0.993042-0.1262646-1.374527-0.3792572
		c-0.3829727-0.2529945-0.6509018-0.6089649-0.806015-1.0680084l-0.8319931,0.3889065
		c0.2820282,0.6036758,0.6724167,1.0573387,1.1704254,1.3616352c0.4987488,0.3037395,1.0984421,0.4556103,1.7983246,0.4556103
		c0.963356,0,1.7248383-0.2452011,2.2844467-0.7361565c0.5588684-0.4914207,0.8394165-1.1555862,0.8394165-1.9928646
		c0-0.6205616-0.1536331-1.1256199-0.4608994-1.5144329c-0.3057861-0.3889065-0.9143753-0.8024883-1.8228149-1.2402868
		c-0.1180038-0.0551071-0.2879639-0.1339645-0.5113602-0.2360153c-1.2350006-0.56499-1.8525009-1.1748819-1.8525009-1.8298616
		c0-0.4590425,0.1551132-0.8232708,0.466095-1.0936117c0.3117142-0.2699709,0.7303085-0.4048634,1.2550354-0.4048634
		c0.3896484,0,0.7266006,0.070137,1.0101166,0.2104101c0.284996,0.1402731,0.5054321,0.3443747,0.6605453,0.6123037
		l0.7525787-0.3955851c-0.2493744-0.395215-0.5714874-0.6917181-0.9678116-0.8890467
		c-0.3963318-0.1978855-0.8616791-0.2965965-1.3967972-0.2965965c-0.8178864,0-1.4821472,0.2079973-1.9949951,0.6245499
		c-0.5135956,0.4169235-0.7703934,0.9566784-0.7703934,1.619915c0,0.5310354,0.1773834,0.9862738,0.5328903,1.3645105
		c0.3547668,0.3782368,1.0702362,0.8159418,2.1449203,1.3132076c0.8408966,0.3913174,1.3901138,0.7356911,1.6446838,1.0332165
		c0.2560577,0.2974319,0.3837128,0.6718636,0.3837128,1.1221867c0,0.6161995-0.1900024,1.0989933-0.5699997,1.4472637
		C94.5026398,20.2122517,93.9749451,20.3863869,93.2980728,20.3863869z"/>
</g>
<g id="monuments">
	<path id="monuments_M_1" class="st0" d="M13.7237759,31.9680252c0.0549212-0.2296143,0.0957422-0.4496727,0.1232033-0.6600819
		c0.0267181-0.2108746,0.0437889-0.4121914,0.0474997-0.6043262c0.0549221,0.1878662,0.1187496,0.3774948,0.1929684,0.5696297
		c0.0742188,0.1921329,0.1625385,0.3900185,0.2634764,0.594677l2.4291763,4.9824829l2.4299202-4.8823814
		c0.1053905-0.2170887,0.1929684-0.4299107,0.2634773-0.6384659c0.0690231-0.2084618,0.1232014-0.417387,0.1617966-0.6259422
		c0.0259762,0.1753426,0.0549221,0.396328,0.0883198,0.6635151c0.0385933,0.3211823,0.0660553,0.5176754,0.0831242,0.5883694
		l1.0271873,4.5256691h1.4012489l-2.2443733-9.5519447l-2.6778107,5.777462
		c-0.0252342,0.0582619-0.0623436,0.1420364-0.112812,0.2503929c-0.1914845,0.4049568-0.3302727,0.7385712-0.4200783,1.0014877
		c-0.1217175-0.313015-0.226366-0.5758438-0.3132019-0.7886658s-0.1514053-0.3649673-0.1944523-0.4570007l-2.7401543-5.7836761
		l-2.1939039,9.5519447h1.3893738L13.7237759,31.9680252z"/>
	<path id="monuments_O" class="st0" d="M24.5982971,28.5065594c-0.4735165,0.4588566-0.833477,0.9783878-1.0783978,1.5585918
		c-0.2449226,0.580204-0.3681259,1.1975193-0.3681259,1.852869c0,0.6591549,0.1232033,1.2769337,0.3681259,1.8527775
		c0.2449207,0.5758438,0.6048813,1.0910149,1.0783978,1.5460663c0.4653511,0.450695,1.0012093,0.798317,1.6075764,1.0419388
		c0.6071091,0.2446442,1.2446461,0.3664551,1.9133568,0.3664551c0.6590614,0,1.2884369-0.1208839,1.8888645-0.3630219
		c0.6011715-0.2422333,1.1399994-0.5903168,1.6179676-1.045372c0.4735165-0.4550514,0.834959-0.9721718,1.0813656-1.5523758
		c0.2478905-0.580204,0.3710938-1.1954765,0.3710938-1.846468c0-0.6467228-0.1232033-1.2610683-0.3710938-1.8436852
		c-0.2464066-0.5815945-0.6078491-1.1045589-1.0813656-1.5677757c-0.4727726-0.4549599-1.0101166-0.8011913-1.6083183-1.0390625
		c-0.5982018-0.2378693-1.231287-0.3568058-1.8985138-0.3568058c-0.6739063,0-1.3099594,0.1189365-1.9103889,0.3568058
		C25.6091537,27.705368,25.0710697,28.0515995,24.5982971,28.5065594z M28.1192303,28.4815102
		c0.4564457,0,0.890625,0.0867424,1.3025379,0.2600441c0.4126549,0.1728363,0.7748432,0.4203548,1.0880451,0.7415371
		c0.3213673,0.325449,0.5677738,0.6967278,0.7384758,1.1141148c0.1721878,0.4174805,0.2567978,0.8575974,0.2567978,1.3208141
		c0,0.4588566-0.08461,0.8960056-0.2567978,1.3110714c-0.170702,0.415535-0.4171085,0.7857933-0.7384758,1.1113319
		c-0.325819,0.3254509-0.6924591,0.5738983-1.1006622,0.7448807c-0.4082031,0.170887-0.8386707,0.2566109-1.2899208,0.2566109
		c-0.4616394,0-0.8973045-0.0857239-1.3077335-0.2566109c-0.410429-0.1709824-0.7763271-0.4194298-1.0969524-0.7448807
		c-0.3213654-0.3255386-0.56703-0.69487-0.736248-1.1079903c-0.1684761-0.4131203-0.253828-0.8512878-0.253828-1.3144131
		c0-0.467577,0.0853519-0.9095497,0.253828-1.3270302c0.1692181-0.4174786,0.4148827-0.7868099,0.736248-1.1078987
		c0.3206253-0.3255424,0.6880074-0.573988,1.1006641-0.7448769C27.2271214,28.5672321,27.6620426,28.4815102,28.1192303,28.4815102z
		"/>
	<path id="monuments_N_1" class="st0" d="M41.8348427,33.6706009c-0.1810951-0.2253456-0.3547668-0.4274979-0.5187874-0.6071091
		c-0.1662521-0.1796074-0.3280487-0.3486404-0.4891014-0.5070038l-5.8989029-5.6022129v9.5268955h1.3893738v-6.3721371
		c0.1343384,0.1877728,0.2768364,0.367382,0.4275017,0.538271c0.1499214,0.1709805,0.3050385,0.3337059,0.4660912,0.488266
		l6.0191345,5.7023125v-9.520586h-1.3953094V33.6706009z"/>
	<path id="monuments_U" class="st0" d="M49.2463188,36.7252579c1.2780457,0,2.233242-0.3077316,2.8678093-0.9230042
		c0.6338272-0.6158295,0.9514847-1.54319,0.9514847-2.7826424V27.317297h-1.5096092v5.5646381
		c0,0.8262405-0.1937103,1.4468918-0.581131,1.8619614c-0.3866806,0.4155312-0.9633598,0.6230659-1.7285538,0.6230659
		c-0.7696457,0-1.3470688-0.2075348-1.7344894-0.6230659c-0.3866806-0.4150696-0.5811348-1.0357208-0.5811348-1.8619614V27.317297
		h-1.4903107v5.7023144c0,1.243721,0.3154297,2.1721039,0.9462891,2.7855186
		C47.0160484,36.4185486,47.969017,36.7252579,49.2463188,36.7252579z"/>
	<path id="monuments_M_2" class="st0" d="M56.7542801,31.9680252c0.054924-0.2296143,0.0957413-0.4496727,0.1232033-0.6600819
		c0.0267181-0.2108746,0.0437889-0.4121914,0.0475006-0.6043262c0.0549202,0.1878662,0.1187477,0.3774948,0.1929665,0.5696297
		c0.0742188,0.1921329,0.1617966,0.3900185,0.2634773,0.594677l2.4291763,4.9824829l2.4299202-4.8823814
		c0.1053925-0.2170887,0.1929703-0.4299107,0.2634773-0.6384659c0.0690231-0.2084618,0.1232033-0.417387,0.1617966-0.6259422
		c0.0259781,0.1753426,0.0549202,0.396328,0.0883217,0.6635151c0.0385933,0.3211823,0.0660515,0.5176754,0.0823822,0.5883694
		l1.0279274,4.5256691h1.4012489l-2.2443733-9.5519447l-2.6778107,5.777462
		c-0.0252342,0.0582619-0.0623436,0.1420364-0.1135521,0.2503929c-0.1907425,0.4049568-0.3295326,0.7385712-0.4193382,1.0014877
		c-0.1217155-0.313015-0.2263641-0.5758438-0.3132019-0.7886658c-0.086834-0.212822-0.1514053-0.3649673-0.1944542-0.4570007
		l-2.7401505-5.7836761l-2.1939049,9.5519447h1.3886299L56.7542801,31.9680252z"/>
	<polygon id="monuments_E" class="st0" points="71.7709427,28.5817051 71.7709427,27.317297 66.5889969,27.317297 
		66.5889969,36.4811707 71.7709427,36.4811707 71.7709427,35.147831 68.0986023,35.147831 68.0986023,32.1871567 
		71.7709427,32.1871567 71.7709427,30.8789597 68.0986023,30.8789597 68.0986023,28.5817051 	"/>
	<path id="monuments_N_2" class="st0" d="M75.0091095,30.1090336c0.1343307,0.1877728,0.2768326,0.367382,0.4274979,0.538271
		c0.1499176,0.1709805,0.3050385,0.3337059,0.466095,0.488266l6.0191345,5.7023125v-9.520586h-1.3953171v6.3533039
		c-0.1810913-0.2253456-0.3547592-0.4274979-0.5195312-0.6071091c-0.1655045-0.1796074-0.327301-0.3486404-0.4883575-0.5070038
		l-5.8996429-5.6022129v9.5268955h1.3901215V30.1090336z"/>
	<polygon id="monuments_T" class="st0" points="85.6624527,36.4811707 87.1713181,36.4811707 87.1713181,28.5817051 
		89.6264725,28.5817051 89.6264725,27.317297 83.1946869,27.317297 83.1946869,28.5817051 85.6624527,28.5817051 	"/>
	<path id="monuments_S" class="st0" d="M93.3641281,35.3544388c-0.4727707,0-0.8624191-0.107338-1.1667175-0.3225746
		c-0.3050385-0.2147675-0.5135956-0.5267677-0.6278915-0.9356194l-1.205307,0.5508881
		c0.156601,0.6677856,0.4868698,1.1810989,0.9923019,1.5397606c0.5061722,0.3587532,1.1540985,0.5383644,1.9452667,0.5383644
		c0.9425812,0,1.6914444-0.2556839,2.2443771-0.7670517c0.5544128-0.5108109,0.8319931-1.2003937,0.8319931-2.0684738
		c0-0.5966263-0.1721878-1.0944481-0.5135956-1.49263c-0.3436356-0.3987408-0.9730072-0.806572-1.8910904-1.223959
		c-0.0460205-0.020689-0.109848-0.0500984-0.1892624-0.0876713c-1.0494461-0.4757404-1.5734329-0.9889641-1.5734329-1.5398521
		c0-0.3504963,0.1187515-0.630209,0.3584747-0.8387623c0.2389832-0.2084618,0.5610962-0.3129253,0.9670715-0.3129253
		c0.2872238,0,0.5425339,0.0668888,0.76371,0.2002983c0.2226562,0.1334076,0.4267578,0.3442802,0.6115646,0.6321564
		l1.1815567-0.600893c-0.1781235-0.4881725-0.4980087-0.8627911-0.9589005-1.1232986
		c-0.4601593-0.2609711-1.0338669-0.3915043-1.7189102-0.3915043c-0.8327332,0-1.5058975,0.2316551-2.0202332,0.6948719
		c-0.513588,0.4631252-0.7711258,1.0683784-0.7711258,1.8152046c0,0.5758438,0.1707001,1.0631828,0.5113602,1.4618282
		c0.3406677,0.3981838,1.0219955,0.8435879,2.0454712,1.3361244c0.0675354,0.0294075,0.1647644,0.0751457,0.2916794,0.1377678
		c0.9047241,0.4212837,1.35746,0.9012909,1.35746,1.4396553c0,0.4131203-0.1313705,0.7429276-0.3963318,0.9889641
		C94.1694031,35.231144,93.8131485,35.3544388,93.3641281,35.3544388z"/>
</g>
<g id="brasil">
	<path id="brasil_B" class="st0" d="M19.1075993,61.6133766c0.9410915-0.1630936,1.7604656-0.4337158,2.4596062-0.8125076
		c0.7859764-0.4211006,1.4034748-1.016983,1.8517551-1.7867241c0.4482822-0.7696457,0.6731644-1.6191711,0.6731644-2.5480194
		c0-1.2726631-0.3903904-2.292057-1.1711712-3.0578079c-0.7807808-0.7653809-1.9363651-1.259491-3.4637852-1.483448
		c1.3203506-0.2233963,2.3133965-0.6727905,2.9776535-1.3479958c0.664257-0.6752968,0.9967575-1.5720444,0.9967575-2.6903343
		c0-0.8684502-0.2003918-1.6464462-0.6019135-2.3348274c-0.4007816-0.687912-0.9685555-1.2428818-1.7018356-1.6639824
		c-0.6219521-0.3272095-1.35746-0.5613708-2.2080059-0.7034988c-0.8498039-0.1416664-2.1946449-0.2127304-4.033042-0.2127304
		h-3.5483952v18.8872643h3.0949192C16.6086559,61.8587646,18.1665058,61.7769356,19.1075993,61.6133766z M15.391469,46.0804291
		h0.9833975c1.2179279,0,2.0699596,0.1679192,2.5575752,0.5033875c0.4876175,0.3354683,0.7317963,0.8986969,0.7317963,1.6903305
		c0,0.8081474-0.25457,1.3845482-0.76371,1.7281837c-0.50914,0.3442802-1.3767567,0.516098-2.6028481,0.516098H15.391469V46.0804291
		z M15.391469,53.6409912h1.6446867c0.9923038,0,1.7500763,0.2107811,2.2718334,0.6318817
		c0.5224991,0.4216537,0.7837486,1.0321007,0.7837486,1.8319931c0,0.8514748-0.2642174,1.4989395-0.7896862,1.9414673
		c-0.5269527,0.4430885-1.2995682,0.6645355-2.3178501,0.6645355H15.391469V53.6409912z"/>
	<path id="brasil_R" class="st0" d="M27.2538414,42.9715004v18.8872643h4.0523396v-8.8244171l4.9860096,8.8244171h4.6735497
		l-5.2309303-8.5921135c1.2431602-0.1548386,2.2569885-0.6923676,3.0429649-1.612957
		c0.7844925-0.9201241,1.1778488-2.0296021,1.1778488-3.3279648c0-1.789135-0.5737076-3.1288757-1.7218704-4.0188484
		c-1.1481628-0.8904381-2.8744926-1.3353806-5.1797218-1.3353806H27.2538414z M35.9544945,48.6222343
		c0,0.8859825-0.2634735,1.5071945-0.7896843,1.8640938c-0.5262108,0.3572693-1.6098022,0.5354881-3.2500362,0.5354881h-0.608593
		v-4.966713h0.608593c1.5630436,0,2.6258564,0.1957512,3.1914043,0.5866051
		C35.6724663,47.0331192,35.9544945,47.6932945,35.9544945,48.6222343z"/>
	<path id="brasil_A" class="st0" d="M45.4997597,61.8587646l1.3203506-4.0124474h7.341713l1.5400352,4.0124474h4.610466
		l-7.3157349-18.8872643h-4.6349564l-7.2118301,18.8872643H45.4997597z M50.0048332,48.6480255
		c0.0526962-0.1630974,0.1306267-0.4878044,0.2337914-0.9742165c0.1039047-0.4858513,0.2107811-1.03405,0.3235931-1.6449623
		c0.1031609,0.636795,0.2033577,1.1742325,0.2976151,1.6128654c0.0950012,0.438633,0.1736717,0.7482147,0.2337875,0.9288445
		l2.122654,6.1025391h-5.2569084L50.0048332,48.6480255z"/>
	<path id="brasil_S" class="st0" d="M66.1147385,46.2420387c0.491333-0.4001312,1.1392593-0.5997772,1.9415588-0.5997772
		c0.6650009,0,1.2320328,0.1353531,1.7033234,0.4060669c0.4698029,0.2711754,0.84832,0.6819763,1.132576,1.2321243
		l2.3957748-2.2837105c-0.6390152-0.8510094-1.374527-1.4770432-2.2080002-1.8768044
		c-0.8327332-0.4001312-1.823555-0.6002426-2.9709778-0.6002426c-1.9771805,0-3.5855026,0.5014381-4.8234711,1.5033913
		c-1.2394485,1.0018616-1.8584328,2.2812958-1.8584328,3.8382187c0,1.1352692,0.3191376,2.1132851,0.9581604,2.9346085
		c0.6390228,0.821785,1.7871895,1.66259,3.4444923,2.5223198c0.3451157,0.1806297,0.8149185,0.4128418,1.4116364,0.6966362
		c1.8376541,0.8860779,2.757225,1.775959,2.757225,2.6707573c0,0.7565689-0.2760925,1.3587608-0.8282776,1.8062057
		c-0.5521927,0.446888-1.3040237,0.670845-2.2532806,0.670845c-0.7852325,0-1.4932785-0.2001114-2.1226578-0.6002464
		c-0.6301117-0.3997574-1.0887871-0.9478645-1.3730431-1.6450539l-2.2525368,2.5418015
		c0.50914,0.9376602,1.2810135,1.6557274,2.3171082,2.1541977c1.035347,0.4990273,2.278511,0.7487755,3.7287445,0.7487755
		c2.0462112,0,3.6753082-0.5267677,4.8880386-1.5807648c1.212738-1.0535355,1.8198471-2.4658241,1.8198471-4.2378883
		c0-1.1781273-0.3874207-2.2273026-1.1592941-3.147892c-0.7726212-0.9201279-1.9608612-1.7458076-3.5676956-2.477047
		c-0.2070694-0.0944443-0.5039444-0.2234001-0.8928528-0.3869591c-1.9504623-0.8256836-2.9256973-1.7370872-2.9256973-2.7350502
		C65.3770065,47.1602173,65.622673,46.6417084,66.1147385,46.2420387z"/>
	<rect id="brasil_I" x="77.3937531" y="42.9715004" class="st0" width="4.0530853" height="18.8872643"/>
	<polygon id="L" class="st0" points="85.8509674,42.9715004 85.8509674,61.8587646 96.3781509,61.8587646 96.3781509,58.4270782 
		89.9040527,58.4270782 89.9040527,42.9715004 	"/>
</g>
<g id="data_00000034076435907117862490000001645061380428185017_">
	<path id="data_2_1_00000098923345270289065190000010668120943466423706_" class="st0" d="M30.4603748,95.6508331H11.3383875
		l11.2367926-14.5093918c0.7296944-0.9569016,1.2314835-1.7590408,1.5053692-2.4053345
		c0.3303604-0.7454681,0.4957924-1.4102859,0.4957924-1.9955444c0-0.9569016-0.267889-1.7459641-0.8036633-2.3682785
		c-0.5932522-0.5841675-1.3284435-0.8762512-2.2065754-0.8762512c-1.0715523,0-1.8872108,0.3727341-2.4454765,1.1192932
		c-0.5932503,0.7585449-0.8896275,1.8396912-0.8896275,3.2445297v0.3356781h-6.0204773v-0.1863632
		c0-3.0712433,0.8321514-5.5016479,2.496954-7.2922974c1.6308174-1.7895584,3.8938694-2.6854324,6.7901554-2.6854324
		c2.8053246,0,5.0343914,0.7901535,6.6876984,2.3693695c1.6762962,1.5661392,2.5144463,3.6674042,2.5144463,6.3026962
		c0,1.2555313-0.2683887,2.5056076-0.804163,3.7480545c-0.5357761,1.2315445-1.3969154,2.5557327-2.5824184,3.9725647
		l-4.5156078,5.426445h7.6627884V95.6508331z"/>
	<path id="data_0_00000052813206728739842290000000306308588218438581_" class="st0" d="M52.985939,82.4656296
		c0,4.3147812-0.83815,7.7151642-2.5144463,10.201149c-1.687294,2.473999-4.0023232,3.7109985-6.9440918,3.7109985
		s-5.2508011-1.2620621-6.9270973-3.7851028c-0.5472717-0.7956085-1.0205727-1.7318039-1.4194069-2.8075027
		c-0.3993301-1.0746078-0.6902084-2.2342224-0.8721352-3.4777603c-0.1829224-1.2424469-0.2738838-2.6102295-0.2738838-4.1022568
		c0-2.2135162,0.2139091-4.1839981,0.6412315-5.911438c0.4278221-1.7285233,1.0690536-3.2205505,1.9241943-4.4760818
		c1.6877937-2.4990616,3.9963264-3.7480469,6.9270973-3.7480469c2.9762535,0,5.3022766,1.2489853,6.9785767,3.7480469
		C52.158783,74.3908081,52.985939,77.940506,52.985939,82.4656296z M40.3462334,82.2051544
		c0,3.0330963,0.2563934,5.2095642,0.7696762,6.5272064c0.5132866,1.379776,1.3169518,2.0696564,2.4114914,2.0696564
		c1.0715523,0,1.8642197-0.6898804,2.3775024-2.0696564c0.5132866-1.3176422,0.76968-3.4941101,0.76968-6.5272064
		c0-2.9960403-0.2563934-5.1594315-0.76968-6.4901581c-0.5132828-1.4048386-1.3059502-2.1067123-2.3775024-2.1067123
		c-1.1285286,0-1.9326897,0.6779022-2.4114914,2.032608C40.6026268,76.9705276,40.3462334,79.1589737,40.3462334,82.2051544z"/>
	<path id="data_2_2_00000094583305720824654990000005089500917042020007_" class="st0" d="M74.2460327,95.6508331H55.1240425
		l11.2362938-14.5093918c0.7296906-0.9569016,1.2314835-1.7590408,1.5053711-2.4053345
		c0.3308563-0.7454681,0.4957886-1.4102859,0.4957886-1.9955444c0-0.9569016-0.2678909-1.7459641-0.8036652-2.3682785
		c-0.5927505-0.5841675-1.3284454-0.8762512-2.2060776-0.8762512c-1.0715485,0-1.887207,0.3727341-2.4459724,1.1192932
		c-0.5927505,0.7585449-0.8896255,1.8396912-0.8896255,3.2445297v0.3356781h-6.0199776v-0.1863632
		c0-3.0712433,0.8321495-5.5016479,2.4964523-7.2922974c1.6313171-1.7895584,3.8943672-2.6854324,6.7901535-2.6854324
		c2.8058243,0,5.0348892,0.7901535,6.6882019,2.3693695c1.6762924,1.5661392,2.5139465,3.6674042,2.5139465,6.3026962
		c0,1.2555313-0.2678909,2.5056076-0.8036652,3.7480545c-0.5357742,1.2315445-1.3974152,2.5557327-2.5829163,3.9725647
		l-4.5151062,5.426445h7.6627884V95.6508331z"/>
	<path id="data_2_3" class="st0" d="M96.138855,95.6508331H77.0168686l11.23629-14.5093918
		c0.7296982-0.9569016,1.2314835-1.7590408,1.5053711-2.4053345c0.330864-0.7454681,0.4957962-1.4102859,0.4957962-1.9955444
		c0-0.9569016-0.2678909-1.7459641-0.8036652-2.3682785c-0.5927505-0.5841675-1.3284454-0.8762512-2.2060776-0.8762512
		c-1.0715485,0-1.887207,0.3727341-2.4459763,1.1192932c-0.5927505,0.7585449-0.8896255,1.8396912-0.8896255,3.2445297v0.3356781
		H77.888504v-0.1863632c0-3.0712433,0.8326492-5.5016479,2.4969559-7.2922974
		c1.6313171-1.7895584,3.8943634-2.6854324,6.7901535-2.6854324c2.8058243,0,5.0348892,0.7901535,6.6881943,2.3693695
		c1.6763,1.5661392,2.5139465,3.6674042,2.5139465,6.3026962c0,1.2555313-0.2678833,2.5056076-0.8036575,3.7480545
		c-0.5357742,1.2315445-1.3974152,2.5557327-2.5829239,3.9725647l-4.5151062,5.426445h7.6627884V95.6508331z"/>
</g>
<path id="moldura" class="st0" d="M0,0.0001855v107.7161255h107.7165527V0.0001855H0z M102.0469971,102.0470581H5.6695557V5.6693749
	h96.3774414V102.0470581z"/>
<g id="guias" class="st1">
	<g id="linhas_guias" class="st2">
		<g id="linhas_verticais">
			<line id="v1" class="st3" x1="0" y1="0.0001855" x2="0" y2="107.7163467"/>
			<line id="v2" class="st3" x1="5.6695647" y1="0.0001855" x2="5.6695647" y2="107.7163467"/>
			<line id="v3" class="st3" x1="11.3391294" y1="0.0001855" x2="11.3391294" y2="107.7163467"/>
			<line id="v4" class="st3" x1="51.0231133" y1="0.0001855" x2="51.0231133" y2="107.7163467"/>
			<line id="v5" class="st3" x1="56.6926804" y1="0.0001855" x2="56.6926804" y2="107.7163467"/>
			<line id="v6" class="st3" x1="96.3774033" y1="0.0001855" x2="96.3774033" y2="107.7163467"/>
			<line id="v7" class="st3" x1="102.0469742" y1="0.0001855" x2="102.0469742" y2="107.7163467"/>
			<line id="v8" class="st3" x1="107.7165375" y1="0.0001855" x2="107.7165375" y2="107.7163467"/>
		</g>
		<g id="linhas_horizontais">
			<line id="h1" class="st3" x1="0.0001855" y1="0" x2="107.7163467" y2="0"/>
			<line id="h2" class="st3" x1="0.0001855" y1="5.6695647" x2="107.7163467" y2="5.6695647"/>
			<line id="h3" class="st3" x1="0.0001855" y1="11.3387585" x2="107.7163467" y2="11.3387585"/>
			<line id="h4" class="st3" x1="0.0001855" y1="21.2599411" x2="107.7163467" y2="21.2599411"/>
			<line id="h5" class="st3" x1="0.0001855" y1="26.9291344" x2="107.7163467" y2="26.9291344"/>
			<line id="h6" class="st3" x1="0.0001855" y1="36.8504066" x2="107.7163467" y2="36.8504066"/>
			<line id="h7" class="st3" x1="0.0001855" y1="42.5196037" x2="107.7163467" y2="42.5196037"/>
			<line id="h8" class="st3" x1="0.0001855" y1="62.3621521" x2="107.7163467" y2="62.3621521"/>
			<line id="h9" class="st3" x1="0.0001855" y1="68.0313416" x2="107.7163467" y2="68.0313416"/>
			<line id="h10" class="st3" x1="0.0001855" y1="96.377594" x2="107.7163467" y2="96.377594"/>
			<line id="h11" class="st3" x1="0.0001855" y1="102.0469742" x2="107.7163467" y2="102.0469742"/>
			<line id="h12" class="st3" x1="0.0001855" y1="107.7165375" x2="107.7163467" y2="107.7165375"/>
		</g>
	</g>
</g>
</svg>
